HIERARCHY
ROOT Root
{
  OFFSET 0.0 0.0 0.0
  CHANNELS 6 Xposition Yposition Zposition Zrotation Yrotation Xrotation
  JOINT Hips
  {
    OFFSET 0.0 100.0 0.0
    CHANNELS 6 Xposition Yposition Zposition Zrotation Yrotation Xrotation
    JOINT Spine1
    {
      OFFSET 5.003913 -0.037094 -0.013727
      CHANNELS 3 Zrotation Yrotation Xrotation
      JOINT Spine2
      {
        OFFSET 7.125363 -1e-06 0.0
        CHANNELS 3 Zrotation Yrotation Xrotation
        JOINT Chest
        {
          OFFSET 7.594027 1e-06 0.0
          CHANNELS 3 Zrotation Yrotation Xrotation
          JOINT Neck1
          {
            OFFSET 26.313086 -0.460272 -0.181672
            CHANNELS 3 Zrotation Yrotation Xrotation
            JOINT Neck2
            {
              OFFSET 8.045911 0.0 0.0
              CHANNELS 3 Zrotation Yrotation Xrotation
              JOINT Head
              {
                OFFSET 6.432774 0.0 0.0
                CHANNELS 3 Zrotation Yrotation Xrotation
                JOINT HeadEnd
                {
                  OFFSET 16.169773 0.06451 0.00362
                  CHANNELS 3 Zrotation Yrotation Xrotation
                }
                JOINT Jaw
                {
                  OFFSET 0.108741 3.12938 0.002639
                  CHANNELS 3 Zrotation Yrotation Xrotation
                }
                JOINT LeftEye
                {
                  OFFSET 4.45173 8.166359 3.206392
                  CHANNELS 3 Zrotation Yrotation Xrotation
                }
                JOINT RightEye
                {
                  OFFSET 4.436895 8.135758 -3.222429
                  CHANNELS 3 Zrotation Yrotation Xrotation
                }
              }
            }
          }
          JOINT LeftShoulder
          {
            OFFSET 23.218927 5.195579 1.621656
            CHANNELS 3 Zrotation Yrotation Xrotation
            JOINT LeftArm
            {
              OFFSET 15.902118 2e-06 -2e-06
              CHANNELS 3 Zrotation Yrotation Xrotation
              JOINT LeftForeArm
              {
                OFFSET 28.739307 0.0 -1e-06
                CHANNELS 3 Zrotation Yrotation Xrotation
                JOINT LeftHand
                {
                  OFFSET 27.093981 -4e-06 0.0
                  CHANNELS 3 Zrotation Yrotation Xrotation
                  JOINT LeftHandThumb1
                  {
                    OFFSET 2.276781 3.380274 0.83384
                    CHANNELS 3 Zrotation Yrotation Xrotation
                    JOINT LeftHandThumb2
                    {
                      OFFSET 4.705309 -1e-06 -1e-06
                      CHANNELS 3 Zrotation Yrotation Xrotation
                      JOINT LeftHandThumb3
                      {
                        OFFSET 2.798515 0.0 3e-06
                        CHANNELS 3 Zrotation Yrotation Xrotation
                        JOINT LeftHandThumbEnd
                        {
                          OFFSET 3.180793 4e-06 -4e-06
                          CHANNELS 3 Zrotation Yrotation Xrotation
                        }
                      }
                    }
                  }
                  JOINT LeftHandIndex1
                  {
                    OFFSET 3.247786 2.352677 0.137192
                    CHANNELS 3 Zrotation Yrotation Xrotation
                    JOINT LeftHandIndex2
                    {
                      OFFSET 6.367095 1e-06 0.0
                      CHANNELS 3 Zrotation Yrotation Xrotation
                      JOINT LeftHandIndex3
                      {
                        OFFSET 3.662364 0.0 0.0
                        CHANNELS 3 Zrotation Yrotation Xrotation
                        JOINT LeftHandIndex4
                        {
                          OFFSET 2.329242 4e-06 -4e-06
                          CHANNELS 3 Zrotation Yrotation Xrotation
                          JOINT LeftHandIndexEnd
                          {
                            OFFSET 2.767823 1e-06 0.0
                            CHANNELS 3 Zrotation Yrotation Xrotation
                          }
                        }
                      }
                    }
                  }
                  JOINT LeftHandMiddle1
                  {
                    OFFSET 3.163612 0.945023 -0.406112
                    CHANNELS 3 Zrotation Yrotation Xrotation
                    JOINT LeftHandMiddle2
                    {
                      OFFSET 6.276789 3e-06 0.0
                      CHANNELS 3 Zrotation Yrotation Xrotation
                      JOINT LeftHandMiddle3
                      {
                        OFFSET 4.35652 -1e-06 4e-06
                        CHANNELS 3 Zrotation Yrotation Xrotation
                        JOINT LeftHandMiddle4
                        {
                          OFFSET 2.996877 0.0 8e-06
                          CHANNELS 3 Zrotation Yrotation Xrotation
                          JOINT LeftHandMiddleEnd
                          {
                            OFFSET 2.323256 3e-06 -4e-06
                            CHANNELS 3 Zrotation Yrotation Xrotation
                          }
                        }
                      }
                    }
                  }
                  JOINT LeftHandRing1
                  {
                    OFFSET 2.882606 -0.309162 0.107445
                    CHANNELS 3 Zrotation Yrotation Xrotation
                    JOINT LeftHandRing2
                    {
                      OFFSET 6.033198 0.0 4e-06
                      CHANNELS 3 Zrotation Yrotation Xrotation
                      JOINT LeftHandRing3
                      {
                        OFFSET 4.350578 3e-06 0.0
                        CHANNELS 3 Zrotation Yrotation Xrotation
                        JOINT LeftHandRing4
                        {
                          OFFSET 2.651321 2e-06 -7e-06
                          CHANNELS 3 Zrotation Yrotation Xrotation
                          JOINT LeftHandRingEnd
                          {
                            OFFSET 1.937663 1e-06 -4e-06
                            CHANNELS 3 Zrotation Yrotation Xrotation
                          }
                        }
                      }
                    }
                  }
                  JOINT LeftHandPinky1
                  {
                    OFFSET 2.865315 -1.525436 0.575687
                    CHANNELS 3 Zrotation Yrotation Xrotation
                    JOINT LeftHandPinky2
                    {
                      OFFSET 5.54936 1e-06 -8e-06
                      CHANNELS 3 Zrotation Yrotation Xrotation
                      JOINT LeftHandPinky3
                      {
                        OFFSET 3.070974 0.0 -4e-06
                        CHANNELS 3 Zrotation Yrotation Xrotation
                        JOINT LeftHandPinky4
                        {
                          OFFSET 1.549672 1e-06 0.0
                          CHANNELS 3 Zrotation Yrotation Xrotation
                          JOINT LeftHandPinkyEnd
                          {
                            OFFSET 1.952123 0.0 0.0
                            CHANNELS 3 Zrotation Yrotation Xrotation
                          }
                        }
                      }
                    }
                  }
                }
              }
            }
          }
          JOINT RightShoulder
          {
            OFFSET 23.161716 5.296122 -1.380114
            CHANNELS 3 Zrotation Yrotation Xrotation
            JOINT RightArm
            {
              OFFSET -16.027195 -2e-06 1.1e-05
              CHANNELS 3 Zrotation Yrotation Xrotation
              JOINT RightForeArm
              {
                OFFSET -28.736639 4e-06 2e-06
                CHANNELS 3 Zrotation Yrotation Xrotation
                JOINT RightHand
                {
                  OFFSET -27.133619 6e-06 0.0
                  CHANNELS 3 Zrotation Yrotation Xrotation
                  JOINT RightHandThumb1
                  {
                    OFFSET -2.274328 -3.351035 -0.83067
                    CHANNELS 3 Zrotation Yrotation Xrotation
                    JOINT RightHandThumb2
                    {
                      OFFSET -4.703594 -3e-06 2e-06
                      CHANNELS 3 Zrotation Yrotation Xrotation
                      JOINT RightHandThumb3
                      {
                        OFFSET -2.794935 -4e-06 -3e-06
                        CHANNELS 3 Zrotation Yrotation Xrotation
                        JOINT RightHandThumbEnd
                        {
                          OFFSET -3.183852 4e-06 1e-06
                          CHANNELS 3 Zrotation Yrotation Xrotation
                        }
                      }
                    }
                  }
                  JOINT RightHandIndex1
                  {
                    OFFSET -3.253496 -2.33755 -0.127667
                    CHANNELS 3 Zrotation Yrotation Xrotation
                    JOINT RightHandIndex2
                    {
                      OFFSET -6.344434 0.0 0.0
                      CHANNELS 3 Zrotation Yrotation Xrotation
                      JOINT RightHandIndex3
                      {
                        OFFSET -3.654871 0.0 -8e-06
                        CHANNELS 3 Zrotation Yrotation Xrotation
                        JOINT RightHandIndex4
                        {
                          OFFSET -2.327586 -1e-06 0.0
                          CHANNELS 3 Zrotation Yrotation Xrotation
                          JOINT RightHandIndexEnd
                          {
                            OFFSET -2.770001 3e-06 8e-06
                            CHANNELS 3 Zrotation Yrotation Xrotation
                          }
                        }
                      }
                    }
                  }
                  JOINT RightHandMiddle1
                  {
                    OFFSET -3.168223 -0.944764 0.411762
                    CHANNELS 3 Zrotation Yrotation Xrotation
                    JOINT RightHandMiddle2
                    {
                      OFFSET -6.266691 -1e-06 -4e-06
                      CHANNELS 3 Zrotation Yrotation Xrotation
                      JOINT RightHandMiddle3
                      {
                        OFFSET -4.348901 0.0 0.0
                        CHANNELS 3 Zrotation Yrotation Xrotation
                        JOINT RightHandMiddle4
                        {
                          OFFSET -3.00024 2e-06 -4e-06
                          CHANNELS 3 Zrotation Yrotation Xrotation
                          JOINT RightHandMiddleEnd
                          {
                            OFFSET -2.321477 -4e-06 -4e-06
                            CHANNELS 3 Zrotation Yrotation Xrotation
                          }
                        }
                      }
                    }
                  }
                  JOINT RightHandRing1
                  {
                    OFFSET -2.885654 0.293261 -0.119232
                    CHANNELS 3 Zrotation Yrotation Xrotation
                    JOINT RightHandRing2
                    {
                      OFFSET -6.032835 -1e-06 -4e-06
                      CHANNELS 3 Zrotation Yrotation Xrotation
                      JOINT RightHandRing3
                      {
                        OFFSET -4.33881 0.0 -4e-06
                        CHANNELS 3 Zrotation Yrotation Xrotation
                        JOINT RightHandRing4
                        {
                          OFFSET -2.654903 -4e-06 -4e-06
                          CHANNELS 3 Zrotation Yrotation Xrotation
                          JOINT RightHandRingEnd
                          {
                            OFFSET -1.935122 0.0 4e-06
                            CHANNELS 3 Zrotation Yrotation Xrotation
                          }
                        }
                      }
                    }
                  }
                  JOINT RightHandPinky1
                  {
                    OFFSET -2.866241 1.503904 -0.60527
                    CHANNELS 3 Zrotation Yrotation Xrotation
                    JOINT RightHandPinky2
                    {
                      OFFSET -5.553177 -2e-06 0.0
                      CHANNELS 3 Zrotation Yrotation Xrotation
                      JOINT RightHandPinky3
                      {
                        OFFSET -3.062664 -1e-06 -4e-06
                        CHANNELS 3 Zrotation Yrotation Xrotation
                        JOINT RightHandPinky4
                        {
                          OFFSET -1.546529 2e-06 4e-06
                          CHANNELS 3 Zrotation Yrotation Xrotation
                          JOINT RightHandPinkyEnd
                          {
                            OFFSET -1.952341 0.0 -4e-06
                            CHANNELS 3 Zrotation Yrotation Xrotation
                          }
                        }
                      }
                    }
                  }
                }
              }
            }
          }
        }
      }
    }
    JOINT LeftLeg
    {
      OFFSET -8.443107 2.567604 10.043214
      CHANNELS 3 Zrotation Yrotation Xrotation
      JOINT LeftShin
      {
        OFFSET 43.229198 1e-06 -1e-06
        CHANNELS 3 Zrotation Yrotation Xrotation
        JOINT LeftFoot
        {
          OFFSET 42.298611 1e-06 1e-06
          CHANNELS 3 Zrotation Yrotation Xrotation
          JOINT LeftToeBase
          {
            OFFSET 14.165858 1e-06 0.0
            CHANNELS 3 Zrotation Yrotation Xrotation
            JOINT LeftToeEnd
            {
              OFFSET 6.7141 -0.234461 0.0
              CHANNELS 3 Zrotation Yrotation Xrotation
            }
          }
        }
      }
    }
    JOINT RightLeg
    {
      OFFSET -8.303923 2.592729 -10.047278
      CHANNELS 3 Zrotation Yrotation Xrotation
      JOINT RightShin
      {
        OFFSET -43.369682 0.0 1e-06
        CHANNELS 3 Zrotation Yrotation Xrotation
        JOINT RightFoot
        {
          OFFSET -42.260784 4e-06 2e-06
          CHANNELS 3 Zrotation Yrotation Xrotation
          JOINT RightToeBase
          {
            OFFSET -14.222245 -2e-06 -1e-06
            CHANNELS 3 Zrotation Yrotation Xrotation
            JOINT RightToeEnd
            {
              OFFSET -6.660062 0.232574 -2e-06
              CHANNELS 3 Zrotation Yrotation Xrotation
            }
          }
        }
      }
    }
  }
}
MOTION
Frames: 4
Frame Time: 0.03333333333333333
0.0 0.0 0.0 0.0 -0.0 0.0 1.999748 99.927345 5.513472 92.118896 0.911819 90.11541 -3.618829 0.00282 0.043188 -11.95717 -0.537919 0.26273 18.161642 -1.288534 -1.71436 19.539646 -0.930317 2.788375 -2.408522 -0.696535 1.499465 -22.839117 -1.66087 2.411285 6e-06 0.0 -0.0 -0.026369 0.028083 -0.006369 0.041269 0.149603 0.023414 0.097767 -0.100931 -0.02857 -141.628952 -71.240883 158.144913 29.622511 -51.455559 10.328144 30.85507 -0.076538 -0.004689 2.91459 0.096358 9.388331 17.636627 -26.322737 52.411201 -19.466661 -14.395598 29.410395 -0.0 -8.774822 -1e-06 15.757853 -18.219114 6.19271 -0.609776 -1.795655 -3.889329 -4.807087 -11.046811 -2.937852 4e-06 -20.976019 -3e-06 -5.01997 -25.03356 -4.031878 6e-06 0.0 -0.0 -10.634535 -5.686973 -3.56559 10.573277 -17.922953 -3.113902 3e-06 -13.82121 -1e-06 -0.501776 -31.181511 -4.027017 -11.321079 -59.270771 7.244953 -13.982713 -7.150196 -2.875043 13.772731 -8.401492 -3.218241 0.347737 -34.211555 0.771651 -0.963028 -17.73337 2.62102 -1e-06 -1e-06 -0.0 -17.346418 -20.095219 -4.201784 21.757559 -1.638376 3.86643 1e-06 -6.338824 1e-06 -1.697589 -22.591745 -6.194006 -1e-06 -5e-06 -2e-06 21.715401 -68.26281 176.028976 32.079338 -47.804359 9.876409 27.230265 -0.154109 0.084682 -1.934759 2.291067 13.421121 22.182112 -20.375898 49.933327 -16.701809 -16.743528 28.476534 -3e-06 -12.690601 -1e-06 16.251617 -17.659191 2.544734 -0.105919 -1.513854 -4.275882 -5.039042 -5.612872 -2.953558 4e-06 -11.020523 1e-06 -6.111298 -15.89533 -3.840472 0.0 0.0 -0.0 -10.283371 -5.680288 -4.34184 11.028294 -11.302404 -2.372634 -1.384269 -14.238579 -6.320121 -0.62544 -26.924183 -3.827598 -4.190962 -49.819004 -3.978281 -13.708523 -7.363475 -3.720944 18.141146 -14.052739 -3.242674 4e-06 -18.787268 -1e-06 -0.429711 -8.456045 2.555506 1e-06 -0.0 -1e-06 -15.923536 -20.094482 -5.473585 30.41921 -7.190824 1.735928 2e-06 -8.162926 -1e-06 -1.861904 -22.861469 -6.167941 -2e-06 -1e-06 -1e-06 -175.883682 -3.250455 -7.455729 5.477479 -0.057075 -0.019542 -75.725899 -3.462694 -10.292397 -7.213179 1.592321 2.086398 -0.999999 1e-06 -0.0 3.921256 -9.562058 -6.268188 7.243739 0.014633 0.050439 -78.935158 2.833045 -8.375073 -7.147087 0.689616 1.639188 -1.000002 -0.0 0.0 
0.0 0.0 0.0 0.0 -0.0 0.0 2.06706 99.953911 5.572977 92.131798 0.911179 90.062477 -3.605209 -0.024158 0.037001 -11.929172 -0.527739 0.309128 18.131638 -1.264906 -1.758395 19.523243 -0.877454 2.806842 -2.403647 -0.676428 1.492729 -22.856682 -1.675315 2.428082 6e-06 0.0 -0.0 -0.03302 0.02484 0.011378 0.029023 0.150714 0.041261 0.084696 -0.10851 -0.011594 -141.601028 -71.325424 158.114975 29.651651 -51.510246 10.187435 30.870178 -0.141096 -0.047922 2.893102 -0.103259 9.611911 17.636631 -26.322733 52.411205 -19.466658 -14.395596 29.410393 -0.0 -8.774819 -1e-06 15.778762 -18.188696 6.171018 -0.609777 -1.795654 -3.88933 -4.807089 -11.046811 -2.937851 2e-06 -20.976015 -2e-06 -5.019969 -25.033552 -4.031881 5e-06 -3e-06 -0.0 -10.634535 -5.686973 -3.565589 10.573275 -17.922947 -3.1139 3e-06 -13.821206 -1e-06 -0.501776 -31.181501 -4.027015 -11.351511 -59.275204 7.365867 -13.982713 -7.150198 -2.875043 13.772729 -8.40149 -3.218241 0.347736 -34.211555 0.771653 -0.96303 -17.73337 2.621022 -2e-06 -0.0 -0.0 -17.346416 -20.095217 -4.201784 21.757557 -1.638375 3.86643 1e-06 -6.338822 -0.0 -1.697589 -22.591742 -6.194007 -1e-06 -3e-06 -1e-06 21.765402 -68.273094 176.018921 31.934919 -47.855873 9.765721 27.213537 -0.165126 0.064182 -1.888443 2.276771 13.455362 22.182121 -20.375895 49.933323 -16.701811 -16.74353 28.476532 -2e-06 -12.690601 -4e-06 16.268978 -17.657099 2.53194 -0.10592 -1.513856 -4.27588 -5.039042 -5.612872 -2.953557 4e-06 -11.020523 -1e-06 -6.1113 -15.89533 -3.840473 -0.0 0.0 -1e-06 -10.283371 -5.680288 -4.34184 11.028296 -11.302404 -2.372635 -1.384269 -14.238579 -6.320121 -0.625438 -26.924191 -3.827603 -4.199748 -49.936844 -3.94421 -13.708526 -7.363477 -3.720942 18.14115 -14.052737 -3.242676 4e-06 -18.78727 -2e-06 -0.429711 -8.456045 2.555504 1e-06 0.0 -1e-06 -15.923536 -20.094482 -5.473584 30.419214 -7.190825 1.735927 1e-06 -8.162924 -2e-06 -1.861901 -22.861467 -6.167944 -2e-06 -2e-06 -3e-06 -175.8423 -3.202328 -7.443398 5.437612 -0.044175 0.041717 -75.626106 -3.500371 -10.355319 -7.269612 1.612913 2.09256 -0.999998 0.0 0.0 4.217389 -9.609698 -6.270578 6.639785 0.013712 0.054858 -78.582054 2.804834 -8.388783 -7.245031 0.66362 1.633145 -1.000002 -0.0 0.0 
0.0 0.0 0.0 0.0 -0.0 0.0 2.123994 99.960861 5.610266 92.145058 0.916495 89.994759 -3.596717 -0.044957 0.0308 -11.919552 -0.530996 0.328426 18.174166 -1.227935 -1.763867 19.479803 -0.846294 2.839893 -2.44217 -0.64864 1.461721 -22.831194 -1.696863 2.467248 6e-06 0.0 0.0 -0.040027 0.024073 0.008704 0.008928 0.149019 0.042302 0.066473 -0.108484 -0.018719 -141.617676 -71.383385 158.143585 29.65576 -51.519569 10.094799 30.928926 -0.190702 -0.088344 2.813269 -0.26685 9.707824 17.636631 -26.322729 52.411186 -19.46666 -14.395596 29.410389 0.0 -8.774821 -3e-06 15.812177 -18.205072 6.151841 -0.609777 -1.795655 -3.889328 -4.807088 -11.046811 -2.937853 3e-06 -20.976019 -2e-06 -5.019972 -25.033558 -4.031877 5e-06 -0.0 -1e-06 -10.634536 -5.686972 -3.565591 10.573272 -17.922951 -3.113899 1e-06 -13.821208 -2e-06 -0.50178 -31.181505 -4.027016 -11.421884 -59.280128 7.410141 -13.982716 -7.150198 -2.875042 13.77273 -8.401489 -3.218239 0.347734 -34.211555 0.771652 -0.963029 -17.73337 2.621018 -1e-06 -2e-06 -0.0 -17.34642 -20.095217 -4.201783 21.757559 -1.638374 3.866428 1e-06 -6.338822 1e-06 -1.69759 -22.591743 -6.194005 0.0 -2e-06 -2e-06 21.71509 -68.259682 176.086777 31.78335 -47.84552 9.698325 27.215528 -0.177307 0.038766 -1.894913 2.282465 13.529619 22.182117 -20.375898 49.933319 -16.701815 -16.743528 28.47653 -3e-06 -12.690601 -0.0 16.271059 -17.624554 2.537376 -0.105919 -1.513856 -4.275882 -5.03904 -5.612871 -2.953555 3e-06 -11.020524 -0.0 -6.111298 -15.895334 -3.840471 1e-06 -1e-06 2e-06 -10.283368 -5.680288 -4.341839 11.028292 -11.302404 -2.372633 -1.384269 -14.23858 -6.320121 -0.625437 -26.924194 -3.827603 -4.212387 -49.973888 -3.925163 -13.708522 -7.363477 -3.72094 18.141148 -14.052741 -3.242676 4e-06 -18.78727 -1e-06 -0.42971 -8.456045 2.555502 1e-06 -1e-06 0.0 -15.923536 -20.094484 -5.473582 30.41921 -7.190824 1.735926 1e-06 -8.162925 -2e-06 -1.861903 -22.861469 -6.167941 -2e-06 -0.0 -1e-06 -175.805008 -3.166683 -7.442311 5.427064 -0.040848 0.077758 -75.606728 -3.531081 -10.387928 -7.256889 1.619748 2.098879 -0.999999 0.0 0.0 4.326594 -9.66244 -6.259616 6.428236 0.018241 0.050741 -78.452408 2.804077 -8.442226 -7.243712 0.650946 1.630156 -1.000002 0.0 0.0 
0.0 0.0 0.0 0.0 -0.0 0.0 2.16771 99.96019 5.614319 92.15535 0.936568 89.91217 -3.58097 -0.072649 0.025517 -11.920881 -0.533581 0.333641 18.234362 -1.191106 -1.736654 19.447554 -0.827334 2.857706 -2.483848 -0.634149 1.462381 -22.827168 -1.69809 2.48734 6e-06 0.0 -0.0 -0.044846 0.023474 0.004681 -0.00997 0.145102 0.041918 0.048446 -0.105813 -0.02692 -141.605209 -71.405663 158.152771 29.668737 -51.493439 10.120941 30.974119 -0.203576 -0.100281 2.742813 -0.305176 9.772028 17.636633 -26.322737 52.411201 -19.46666 -14.395598 29.410395 -0.0 -8.774822 -2e-06 15.823178 -18.199455 6.147022 -0.609776 -1.795653 -3.889326 -4.807087 -11.046809 -2.93785 4e-06 -20.976015 -2e-06 -5.019968 -25.033556 -4.03188 5e-06 1e-06 1e-06 -10.634531 -5.686969 -3.56559 10.573272 -17.922951 -3.1139 2e-06 -13.82121 -1e-06 -0.501778 -31.181505 -4.027012 -11.452813 -59.289238 7.424099 -13.982714 -7.150198 -2.875044 13.772728 -8.401491 -3.21824 0.347732 -34.211555 0.771657 -0.963031 -17.733372 2.621025 -1e-06 -1e-06 -0.0 -17.346416 -20.095217 -4.201784 21.757557 -1.638375 3.866427 1e-06 -6.338824 -0.0 -1.697587 -22.591745 -6.194007 -0.0 -4e-06 0.0 21.642046 -68.242981 176.162476 31.655645 -47.833565 9.786527 27.207546 -0.145362 0.032017 -1.929224 2.25333 13.579683 22.182117 -20.375898 49.933331 -16.701817 -16.74353 28.476542 -2e-06 -12.690603 -1e-06 16.255905 -17.585785 2.554092 -0.10592 -1.513855 -4.275881 -5.039041 -5.612873 -2.953555 4e-06 -11.020526 -2e-06 -6.1113 -15.895334 -3.840471 -0.0 -1e-06 1e-06 -10.283371 -5.680288 -4.34184 11.028295 -11.302406 -2.372634 -1.38427 -14.238583 -6.320123 -0.625439 -26.924196 -3.827603 -4.241238 -49.943527 -3.8837 -13.708527 -7.363476 -3.720941 18.141153 -14.052741 -3.242677 6e-06 -18.787271 -4e-06 -0.429709 -8.456045 2.555504 1e-06 -2e-06 -0.0 -15.923539 -20.094484 -5.473584 30.419218 -7.190826 1.735925 1e-06 -8.162925 -1e-06 -1.861903 -22.861475 -6.167943 -2e-06 -1e-06 0.0 -175.765411 -3.135755 -7.490474 5.431748 -0.043824 0.094136 -75.613846 -3.567793 -10.408811 -7.238202 1.62233 2.10147 -0.999999 0.0 -0.0 4.354622 -9.70492 -6.255623 6.390275 0.018852 0.042189 -78.420937 2.845213 -8.499276 -7.229919 0.638765 1.626154 -1.000002 0.0 0.0 
